# Blender v2.82 (sub 7) OBJ File: ''
# www.blender.org
mtllib hellolosers.mtl
o Cube_Cube.001
v -0.992929 0.992929 0.000000
v -0.994227 -0.994227 -0.994227
v -0.992929 -0.992929 -0.000000
v -0.994227 0.994227 -0.994227
v 0.994227 -0.994227 -0.994227
v 0.995149 0.995149 0.007276
v 0.994227 -0.994227 0.994227
v 0.995149 -0.995149 0.007276
v 0.994227 0.994227 0.994227
v -0.994227 -0.994227 0.994227
v 0.994227 0.994227 -0.994227
v -0.994227 0.994227 0.994227
v -2.231459 -2.217317 -0.000000
v 2.217755 -2.217755 0.003464
v 2.217755 2.217755 0.003464
v -2.231459 2.217317 0.000000
v -0.561655 -0.547513 3.289746
v 0.548840 -0.548840 3.283915
v 0.548840 0.548840 3.283915
v -0.561655 0.547513 3.289746
v -1.000000 1.000000 0.000000
v -1.000000 -1.000000 -1.000000
v -1.000000 -1.000000 -0.000000
v -1.000000 1.000000 -1.000000
v 1.000000 -1.000000 -1.000000
v 1.000000 1.000000 0.000000
v 1.000000 -1.000000 1.000000
v 1.000000 -1.000000 -0.000000
v 1.000000 1.000000 1.000000
v -1.000000 -1.000000 1.000000
v 1.000000 1.000000 -1.000000
v -1.000000 1.000000 1.000000
v -2.224388 -2.224388 -0.000000
v 2.224388 -2.224388 -0.000000
v 2.224388 2.224388 0.000000
v -2.224388 2.224388 0.000000
v -0.554584 -0.554584 3.289746
v 0.554584 -0.554584 3.289746
v 0.554584 0.554584 3.289746
v -0.554584 0.554584 3.289746
vt 0.721084 0.383308
vt 0.275118 0.160180
vt 0.275409 0.383308
vt 0.277108 0.721375
vt 0.723365 0.275118
vt 0.277108 0.275118
vt 0.721582 0.384941
vt 0.275118 0.606437
vt 0.274911 0.384941
vt 0.723365 0.721375
vt 0.277108 0.275118
vt 0.723365 0.275118
vt 0.723572 0.384941
vt 0.277108 0.606437
vt 0.277399 0.383308
vt 0.277399 0.383308
vt 0.723365 0.606437
vt 0.723572 0.384941
vt 0.277108 0.160180
vt 0.723365 0.160180
vt 0.723365 0.160180
vt 0.277108 0.160180
vt 0.721375 0.160180
vt 0.275118 0.160180
vt 0.721375 0.606437
vt 0.275118 0.606437
vt 0.277399 0.721084
vt -0.000557 0.000627
vt 0.277399 0.275409
vt 0.723572 0.274911
vt 0.723572 0.721582
vt 0.997954 0.000528
vt 0.997954 0.995964
vt 0.995866 0.383308
vt 0.375371 0.996607
vt 0.000627 0.383308
vt 0.997954 0.384086
vt 0.374187 0.996607
vt -0.000557 0.383308
vt 0.995964 0.384086
vt 0.375073 0.995298
vt 0.000528 0.384086
vt -0.000557 0.383308
vt 0.623409 0.995298
vt 0.997954 0.384086
vt 0.721375 0.160180
vt 0.723365 0.721375
vt 0.721375 0.606437
vt 0.277108 0.721375
vt 0.723365 0.606437
vt 0.277108 0.606437
vt -0.000557 0.995866
vt 0.621122 0.996607
vt 0.623409 0.995298
vt 0.621419 0.995298
vt 0.374187 0.996607
vt 0.722670 0.383308
vt 0.273822 0.383308
vt 0.273822 0.158884
vt 0.275812 0.722670
vt 0.275812 0.273822
vt 0.724660 0.273822
vt 0.722670 0.383308
vt 0.273822 0.383308
vt 0.273822 0.607733
vt 0.724660 0.722670
vt 0.724660 0.273822
vt 0.275812 0.273822
vt 0.724660 0.383308
vt 0.275812 0.383308
vt 0.275812 0.607733
vt 0.275812 0.383308
vt 0.724660 0.383308
vt 0.724660 0.607733
vt 0.275812 0.158884
vt 0.724660 0.158884
vt 0.724660 0.158884
vt 0.275812 0.158884
vt 0.722670 0.158884
vt 0.273822 0.158884
vt 0.722670 0.607733
vt 0.273822 0.607733
vt 0.275812 0.722670
vt 0.275812 0.273822
vt 0.001030 -0.000960
vt 0.724660 0.273822
vt 0.724660 0.722670
vt 0.999443 -0.000960
vt 0.999443 0.997453
vt 0.997453 0.383308
vt -0.000960 0.383308
vt 0.373784 0.996607
vt 0.999443 0.383308
vt 0.001030 0.383308
vt 0.375774 0.996607
vt 0.997453 0.383308
vt -0.000960 0.383308
vt 0.373784 0.996607
vt 0.001030 0.383308
vt 0.999443 0.383308
vt 0.624698 0.996607
vt 0.722670 0.158884
vt 0.724660 0.722670
vt 0.722670 0.607733
vt 0.275812 0.722670
vt 0.724660 0.607733
vt 0.275812 0.607733
vt 0.001030 0.997453
vt 0.622708 0.996607
vt 0.624698 0.996607
vt 0.622708 0.996607
vt 0.375774 0.996607
vt 0.374187 0.621122
vt 0.375774 0.373784
vt 0.374187 0.375371
vt 0.623409 0.375073
vt 0.623409 0.621419
vt 0.375774 0.622708
vt 0.624698 0.622708
vt 0.624698 0.373784
vn -1.0000 -0.0000 0.0013
vn 0.0000 0.0000 -1.0000
vn 1.0000 0.0000 0.0009
vn 0.0000 -0.0000 1.0000
vn -0.0011 -1.0000 -0.0013
vn -0.0011 1.0000 0.0009
vn 0.0000 1.0000 -0.0009
vn 0.0000 -1.0000 0.0013
vn 1.0000 0.0000 -0.0009
vn -1.0000 0.0000 -0.0013
vn -0.0009 0.0014 -1.0000
vn 0.0023 -0.0002 -1.0000
vn 0.0037 -0.0037 -1.0000
vn 0.0003 -0.0034 -1.0000
vn -0.0012 0.0019 -1.0000
vn 0.0012 -0.0004 -1.0000
vn -0.0004 -0.0016 -1.0000
vn 0.8917 0.0000 -0.4526
vn 0.4792 0.0000 -0.8777
vn -0.0001 -0.8915 0.4530
vn -0.0019 -0.9978 0.0663
vn -0.0004 -0.8916 0.4528
vn 0.8913 -0.0000 0.4534
vn -0.0004 0.8914 0.4533
vn 0.0000 -1.0000 0.0009
vn 0.0000 1.0000 -0.0013
vn -0.0011 1.0000 0.0013
vn -0.0011 -1.0000 -0.0009
vn 0.0008 0.0008 -1.0000
vn 0.5355 -0.7490 -0.3901
vn 0.7494 0.5345 -0.3908
vn 0.0013 0.8920 0.4521
vn -0.0009 0.9979 0.0649
vn 1.0000 0.0000 0.0000
vn -1.0000 -0.0000 0.0000
vn 0.0000 1.0000 0.0000
vn 0.0000 -1.0000 0.0000
vn -0.8917 -0.0000 0.4526
vn -0.9978 -0.0000 0.0661
vn 0.0000 0.8917 -0.4526
vn -0.0033 0.4755 -0.8797
vn -0.8917 0.0000 -0.4526
vn 0.0000 -0.8917 -0.4526
vn -0.0491 0.3797 -0.9238
vn -0.3797 -0.0491 -0.9238
vn -0.0033 -0.4755 -0.8797
usemtl None
s 1
f 1/1/1 2/2/1 3/3/1
f 4/4/2 5/5/2 2/6/2
f 6/7/3 7/8/3 8/9/3
f 9/10/4 10/11/4 7/12/4
f 8/13/5 10/14/5 3/15/5
f 1/16/6 9/17/6 6/18/6
f 4/19/7 6/18/7 11/20/7
f 5/21/8 3/15/8 2/22/8
f 11/23/9 8/9/9 5/24/9
f 12/25/10 3/3/10 10/26/10
f 1/27/4 13/28/4 3/29/4
f 8/30/11 13/28/12 3/29/13
f 6/31/14 14/32/15 8/30/11
f 1/27/16 15/33/17 6/31/14
f 16/34/18 17/35/19 13/36/18
f 14/37/20 17/38/21 13/39/22
f 15/40/23 18/41/23 14/42/23
f 16/43/24 19/44/24 15/45/24
f 1/1/1 4/46/1 2/2/1
f 4/4/2 11/47/2 5/5/2
f 6/7/3 9/48/3 7/8/3
f 9/10/4 12/49/4 10/11/4
f 8/13/25 7/50/25 10/14/25
f 1/16/26 12/51/26 9/17/26
f 4/19/27 1/16/27 6/18/27
f 5/21/28 8/13/28 3/15/28
f 11/23/9 6/7/9 8/9/9
f 12/25/10 1/1/10 3/3/10
f 1/27/4 16/52/4 13/28/4
f 8/30/11 14/32/15 13/28/12
f 6/31/14 15/33/17 14/32/15
f 1/27/16 16/52/29 15/33/17
f 16/34/18 20/53/19 17/35/19
f 14/37/20 18/54/30 17/38/21
f 15/40/23 19/55/31 18/41/30
f 16/43/32 20/56/33 19/44/31
f 21/57/34 23/58/34 22/59/34
f 24/60/4 22/61/4 25/62/4
f 26/63/35 28/64/35 27/65/35
f 29/66/2 27/67/2 30/68/2
f 28/69/36 23/70/36 30/71/36
f 21/72/37 26/73/37 29/74/37
f 24/75/37 31/76/37 26/73/37
f 25/77/36 22/78/36 23/70/36
f 31/79/35 25/80/35 28/64/35
f 32/81/34 30/82/34 23/58/34
f 21/83/2 23/84/2 33/85/2
f 28/86/4 23/84/4 33/85/4
f 26/87/4 28/86/4 34/88/4
f 21/83/4 26/87/4 35/89/4
f 36/90/38 33/91/38 37/92/39
f 34/93/40 33/94/40 37/95/41
f 35/96/42 34/97/42 38/98/42
f 36/99/43 35/100/43 39/101/43
f 21/57/34 22/59/34 24/102/34
f 24/60/4 25/62/4 31/103/4
f 26/63/35 27/65/35 29/104/35
f 29/66/2 30/68/2 32/105/2
f 28/69/36 30/71/36 27/106/36
f 21/72/37 29/74/37 32/107/37
f 24/75/37 26/73/37 21/72/37
f 25/77/36 23/70/36 28/69/36
f 31/79/35 28/64/35 26/63/35
f 32/81/34 23/58/34 21/57/34
f 21/83/2 33/85/2 36/108/2
f 28/86/4 33/85/4 34/88/4
f 26/87/4 34/88/4 35/89/4
f 21/83/4 35/89/4 36/108/4
f 36/90/38 37/92/39 40/109/39
f 34/93/40 37/95/41 38/110/44
f 35/96/42 38/98/44 39/111/45
f 36/99/43 39/101/45 40/112/46
f 20/113/19 37/114/39 17/115/19
f 18/116/30 37/114/41 17/115/21
f 19/55/31 38/98/44 18/41/30
f 19/117/31 40/118/46 39/119/45
f 20/113/19 40/118/39 37/114/39
f 18/116/30 38/120/44 37/114/41
f 19/55/31 39/111/45 38/98/44
f 19/117/31 20/113/33 40/118/46
