# Blender v2.93.6 OBJ File: ''
# www.blender.org
mtllib hmmmmtriangles.mtl
o Cube_Cube.002
v -1.091533 1.091533 -1.091533
v -1.091533 -1.091533 -1.091533
v -7.815458 -1.091533 -1.091533
v -7.815458 1.091533 -1.091533
v 1.091533 1.091533 -1.091533
v 1.091533 1.091533 -7.514266
v -1.091533 1.091533 -7.514266
v 1.091533 -1.091533 1.091533
v 1.091533 -1.091533 -1.091533
v 6.907458 -1.091533 -1.091533
v 6.907458 -1.091533 1.091533
v -1.091533 1.091533 1.091533
v -1.091533 -1.091533 1.091533
v -1.091533 -1.091533 6.009009
v -1.091533 1.091533 6.009009
v 0.355376 -5.327451 0.355376
v 0.355376 -5.327451 -0.355376
v -0.821563 1.374329 -0.821563
v 0.821563 1.374329 -0.821563
v 0.821563 1.374329 0.821563
v 0.821563 2.110299 -0.821563
v 0.821563 2.110299 0.821563
v 1.091533 1.091533 1.091533
v -0.821563 1.374329 0.821563
v -0.821563 2.110299 0.821563
v 0.641042 2.481222 0.641042
v -0.641042 2.481222 0.641042
v -0.821563 2.110299 -0.821563
v 0.641042 2.481222 -0.641042
v -0.641042 2.481222 -0.641042
v -0.567900 3.710630 -0.567900
v 0.567900 3.710630 -0.567900
v 0.567900 3.710630 0.567900
v 0.634634 5.570402 -0.634634
v 0.634634 5.570402 0.634634
v -0.567900 3.710630 0.567900
v -0.634634 5.570402 0.634634
v 0.634634 5.996824 0.634634
v -0.634634 5.996824 0.634634
v -0.634634 5.570402 -0.634634
v 0.634634 5.996824 -0.634634
v 0.330969 6.545826 -0.330969
v 0.330969 6.545826 0.330969
v -0.634634 5.996824 -0.634634
v -0.330969 6.545826 -0.330969
v -0.330969 6.545826 0.330969
v 1.091533 1.091533 6.009009
v -1.957319 1.957319 10.945716
v 1.957319 1.957319 10.945716
v 1.091533 -1.091533 6.009009
v 0.158910 0.158910 -10.307433
v -0.158910 0.158910 -10.307433
v -1.091533 -1.091533 -7.514266
v 1.091533 -1.091533 -7.514266
v 6.907458 1.091533 -1.091533
v 10.720659 2.222143 -2.222143
v 10.720659 -2.222143 -2.222143
v 6.907458 1.091533 1.091533
v -13.086013 -0.107363 -0.107363
v -13.086013 0.107363 -0.107363
v -7.815458 1.091533 1.091533
v -7.815458 -1.091533 1.091533
v -0.355376 -5.327451 -0.355376
v -0.355376 -5.327451 0.355376
v -0.158910 -0.158910 -10.307433
v 0.158910 -0.158910 -10.307433
v -13.086013 -0.107363 0.107363
v -13.086013 0.107363 0.107363
v -1.957319 -1.957319 10.945716
v 1.957319 -1.957319 10.945716
v 0.824174 -0.824175 12.077317
v -0.824174 -0.824175 12.077317
v 0.824174 0.824173 12.077317
v -0.824174 0.824173 12.077317
v 10.720659 2.222143 2.222143
v 10.720659 -2.222143 2.222143
vt 0.750952 0.833813
vt 0.834010 0.578188
vt 0.834010 0.833755
vt 0.082968 0.469408
vt 0.000000 0.711352
vt 0.000000 0.468899
vt 0.377415 0.783639
vt 0.436176 0.562355
vt 0.436112 0.783655
vt 0.499318 0.417226
vt 0.582721 0.230276
vt 0.582205 0.417226
vt 0.916896 0.720215
vt 0.973515 0.561238
vt 0.999891 0.720215
vt 0.073233 0.457804
vt 0.843876 0.925683
vt 0.906421 0.897740
vt 0.906343 0.925683
vt 0.834010 0.937099
vt 0.917005 0.937099
vt 0.696934 0.742520
vt 0.623805 0.753936
vt 0.613939 0.742520
vt 0.999963 0.376125
vt 0.927169 0.390864
vt 0.916896 0.376125
vt 0.989691 0.413554
vt 0.934038 0.429015
vt 0.927169 0.413554
vt 0.686273 0.753936
vt 0.623882 0.781879
vt 0.989691 0.390864
vt 0.928673 0.196467
vt 0.991125 0.168510
vt 0.991125 0.196511
vt 0.935210 0.154461
vt 0.981030 0.107759
vt 0.983941 0.154495
vt 0.928673 0.168466
vt 0.843953 0.897740
vt 0.899310 0.883203
vt 0.686350 0.781879
vt 0.630498 0.796416
vt 0.853362 0.836341
vt 0.899381 0.765898
vt 0.896543 0.836341
vt 0.850569 0.883203
vt 0.679240 0.796416
vt 0.633292 0.843277
vt 0.982822 0.429015
vt 0.936821 0.468548
vt 0.982578 0.524394
vt 0.934281 0.537540
vt 0.934281 0.524394
vt 0.676472 0.843277
vt 0.631055 0.913721
vt 0.980039 0.468548
vt 0.937859 0.107729
vt 0.983686 0.036966
vt 0.851171 0.749708
vt 0.887457 0.728100
vt 0.899426 0.749708
vt 0.935443 0.036932
vt 0.983686 0.020742
vt 0.851126 0.765898
vt 0.679310 0.913721
vt 0.631100 0.929911
vt 0.585885 0.417379
vt 0.610872 0.442384
vt 0.585885 0.442537
vt 0.679355 0.929911
vt 0.642221 0.951519
vt 0.971023 0.561238
vt 0.945836 0.561238
vt 0.946440 0.000000
vt 0.971600 0.000018
vt 0.730253 0.185628
vt 0.613940 0.376125
vt 0.647283 0.185628
vt 0.065284 0.309653
vt 0.129729 0.167425
vt 0.147590 0.298432
vt 0.729113 0.000000
vt 0.646143 0.000000
vt 0.433575 0.000000
vt 0.351205 0.186950
vt 0.350688 0.000000
vt 0.082968 0.711862
vt 0.033711 0.821463
vt 0.916896 0.376125
vt 0.834010 0.620531
vt 0.834010 0.376354
vt 0.762719 0.351747
vt 0.845605 0.107799
vt 0.845605 0.351975
vt 0.845605 0.222683
vt 0.928673 0.049992
vt 0.928673 0.222683
vt 0.273126 0.221055
vt 0.147590 0.368015
vt 0.190068 0.221055
vt 0.269529 0.368015
vt 0.185762 0.589051
vt 0.187120 0.368015
vt 0.273281 0.000000
vt 0.190223 0.000000
vt 0.690880 0.376125
vt 0.623579 0.597425
vt 0.623579 0.376125
vt 0.750952 0.578246
vt 0.796009 0.376125
vt 0.518583 0.873625
vt 0.585885 0.617774
vt 0.585885 0.873625
vt 0.436176 0.875167
vt 0.518583 0.619111
vt 0.518583 0.874660
vt 0.141686 0.457425
vt 0.082968 0.713271
vt 0.082988 0.457420
vt 0.113699 0.457420
vt 0.137915 0.434832
vt 0.140496 0.453767
vt 0.111118 0.438485
vt 0.833927 0.833813
vt 0.777727 0.995391
vt 1.000000 0.728100
vt 0.946603 0.887078
vt 0.917005 0.728100
vt 0.597965 0.454637
vt 0.585885 0.442537
vt 0.597965 0.442546
vt 0.916896 0.620302
vt 0.871764 0.728100
vt 0.762719 0.107570
vt 0.812540 0.000033
vt 0.845605 0.049992
vt 0.893186 0.000000
vt 0.594037 0.454637
vt 0.585885 0.462823
vt 0.585885 0.454660
vt 0.518583 0.617774
vt 0.533594 0.417226
vt 0.436176 0.619617
vt 0.476722 0.417226
vt 0.141666 0.713275
vt 0.135912 0.913823
vt 0.000000 0.074674
vt 0.096637 0.000000
vt 0.147590 0.054553
vt 0.434091 0.186950
vt 0.316679 0.376009
vt 0.047423 0.178646
vt 0.499835 0.230276
vt 0.613940 0.041217
vt 0.367496 0.826772
vt 0.316679 0.889493
vt 0.316679 0.826772
vt 0.465309 0.041217
vt 0.573879 0.000000
vt 0.427669 0.932610
vt 0.427669 0.783655
vt 0.465309 0.376009
vt 0.362664 0.417226
vt 0.316329 0.736540
vt 0.147590 0.905035
vt 0.147590 0.736074
vt 0.690880 0.597425
vt 0.613940 0.742520
vt 0.377478 0.562338
vt 0.436175 0.417260
vt 0.268171 0.589051
vt 0.147590 0.736074
vt 0.946494 0.561238
vt 0.010786 0.457420
vt 0.982578 0.537540
vt 0.862292 0.728100
vt 0.935443 0.020708
vt 0.610872 0.417226
vt 0.667386 0.951519
vt 0.762719 0.376125
vt 0.045790 0.821537
vt 0.316679 0.368015
vt 0.787839 0.376131
vt 0.804741 0.995391
vt 0.973624 0.887078
vt 0.585885 0.454629
vt 0.883831 0.728067
vt 0.800473 0.000000
vt 0.881092 0.000000
vt 0.594037 0.462801
vt 0.526974 0.417226
vt 0.468617 0.417275
vt 0.141686 0.913824
vt 0.034491 0.008472
vt 0.367496 0.889493
vt 0.511294 0.000000
vt 0.425248 0.417226
vt 0.316329 0.905501
vt 0.750952 0.742520
vt 0.316679 0.417226
vt 0.315358 0.736074
vn 0.0000 0.0000 -1.0000
vn 0.0000 1.0000 0.0000
vn 0.0000 -1.0000 0.0000
vn -1.0000 0.0000 0.0000
vn 0.9852 -0.1712 0.0000
vn 0.0000 0.6905 -0.7233
vn 1.0000 0.0000 0.0000
vn 0.7233 0.6905 0.0000
vn -0.7233 0.6905 0.0000
vn 0.0000 0.6905 0.7233
vn 0.0000 0.4376 0.8992
vn 0.0000 -0.0000 1.0000
vn 0.0000 0.0594 -0.9982
vn 0.0000 0.4376 -0.8992
vn 0.8992 0.4376 0.0000
vn -0.8992 0.4376 0.0000
vn 0.9994 -0.0359 0.0000
vn 0.9982 0.0594 0.0000
vn -0.9982 0.0594 0.0000
vn 0.0000 0.0594 0.9982
vn -0.9994 -0.0359 0.0000
vn 0.0000 -0.0359 0.9994
vn 0.0000 -0.0359 -0.9994
vn 0.8751 0.4840 0.0000
vn -0.8751 0.4840 0.0000
vn 0.0000 0.4840 0.8751
vn 0.0000 0.4840 -0.8751
vn 0.0000 0.9850 -0.1727
vn 0.0000 0.9485 -0.3167
vn -0.2843 0.0000 -0.9587
vn -0.1836 0.0000 -0.9830
vn 0.0000 -0.1712 0.9852
vn 0.0000 -0.1712 -0.9852
vn -0.9852 -0.1712 0.0000
vn -0.9485 0.0000 -0.3167
vn 0.9485 0.0000 -0.3167
vn 0.0000 -0.9485 -0.3167
vn -0.1836 -0.0000 0.9830
vn -0.1836 0.9830 0.0000
vn -0.1836 -0.9830 0.0000
vn 0.0000 -0.7066 0.7076
vn 0.9850 0.0000 -0.1727
vn 0.0000 -0.9850 -0.1727
vn -0.9850 0.0000 -0.1727
vn -0.7066 0.0000 0.7076
vn 0.0000 0.7066 0.7076
vn 0.7066 0.0000 0.7076
vn -0.2843 0.0000 0.9587
vn -0.2843 -0.9587 0.0000
vn -0.2843 0.9587 0.0000
usemtl None.001
s 1
f 2/1/1 4/2/1 1/3/1
f 5/4/2 7/5/2 1/6/2
f 9/7/3 11/8/3 8/9/3
f 13/10/4 15/11/4 12/12/4
f 8/13/5 17/14/5 9/15/5
f 1/6/6 19/16/6 5/4/6
f 19/17/7 22/18/7 20/19/7
f 5/20/8 20/19/8 23/21/8
f 12/22/9 18/23/9 1/24/9
f 23/25/10 24/26/10 12/27/10
f 22/28/11 27/29/11 25/30/11
f 24/31/4 28/32/4 18/23/4
f 20/33/12 25/30/12 24/26/12
f 18/34/1 21/35/1 19/36/1
f 30/37/13 32/38/13 29/39/13
f 28/40/14 29/39/14 21/35/14
f 21/41/15 26/42/15 22/18/15
f 25/43/16 30/44/16 28/32/16
f 32/45/17 35/46/17 33/47/17
f 29/48/18 33/47/18 26/42/18
f 27/49/19 31/50/19 30/44/19
f 26/51/20 36/52/20 27/29/20
f 35/53/12 39/54/12 37/55/12
f 36/56/21 40/57/21 31/50/21
f 33/58/22 37/55/22 36/52/22
f 31/59/23 34/60/23 32/38/23
f 41/61/24 43/62/24 38/63/24
f 40/64/1 41/65/1 34/60/1
f 34/66/7 38/63/7 35/46/7
f 37/67/4 44/68/4 40/57/4
f 45/69/2 43/70/2 42/71/2
f 39/72/25 45/73/25 44/68/25
f 39/54/26 43/74/26 46/75/26
f 41/65/27 45/76/27 42/77/27
f 15/78/28 49/79/28 47/80/28
f 8/81/3 14/82/3 13/83/3
f 12/84/2 47/80/2 23/85/2
f 23/86/7 50/87/7 8/88/7
f 6/89/29 52/90/29 7/5/29
f 1/91/4 53/92/4 2/93/4
f 9/94/7 6/95/7 5/96/7
f 2/97/3 54/98/3 9/99/3
f 55/100/30 57/101/30 10/102/30
f 23/103/2 55/104/2 5/105/2
f 5/106/1 10/102/1 9/107/1
f 8/108/12 58/109/12 23/110/12
f 3/111/31 60/112/31 4/2/31
f 12/113/12 62/114/12 13/115/12
f 1/116/2 61/117/2 12/118/2
f 13/119/3 3/120/3 2/121/3
f 17/122/3 64/123/3 63/124/3
f 13/83/32 16/125/32 8/81/32
f 9/126/33 63/127/33 2/1/33
f 2/128/34 64/129/34 13/130/34
f 52/131/1 66/132/1 65/133/1
f 7/134/35 65/135/35 53/92/35
f 54/136/36 51/137/36 6/95/36
f 53/138/37 66/139/37 54/98/37
f 68/140/4 59/141/4 67/142/4
f 61/143/38 67/144/38 62/114/38
f 4/145/39 68/146/39 61/117/39
f 62/147/40 59/148/40 3/120/40
f 70/149/41 72/150/41 69/151/41
f 47/152/42 70/153/42 50/87/42
f 50/154/43 69/151/43 14/82/43
f 14/155/44 48/156/44 15/11/44
f 73/157/12 72/158/12 71/159/12
f 69/160/45 74/161/45 48/156/45
f 48/162/46 73/157/46 49/163/46
f 49/164/47 71/165/47 70/153/47
f 56/166/7 76/167/7 57/168/7
f 11/169/48 75/170/48 58/109/48
f 10/171/49 76/172/49 11/8/49
f 58/173/50 56/174/50 55/104/50
f 2/1/1 3/111/1 4/2/1
f 5/4/2 6/89/2 7/5/2
f 9/7/3 10/171/3 11/8/3
f 13/10/4 14/155/4 15/11/4
f 8/13/5 16/175/5 17/14/5
f 1/6/6 18/176/6 19/16/6
f 19/17/7 21/41/7 22/18/7
f 5/20/8 19/17/8 20/19/8
f 12/22/9 24/31/9 18/23/9
f 23/25/10 20/33/10 24/26/10
f 22/28/11 26/51/11 27/29/11
f 24/31/4 25/43/4 28/32/4
f 20/33/12 22/28/12 25/30/12
f 18/34/1 28/40/1 21/35/1
f 30/37/13 31/59/13 32/38/13
f 28/40/14 30/37/14 29/39/14
f 21/41/15 29/48/15 26/42/15
f 25/43/16 27/49/16 30/44/16
f 32/45/17 34/66/17 35/46/17
f 29/48/18 32/45/18 33/47/18
f 27/49/19 36/56/19 31/50/19
f 26/51/20 33/58/20 36/52/20
f 35/53/12 38/177/12 39/54/12
f 36/56/21 37/67/21 40/57/21
f 33/58/22 35/53/22 37/55/22
f 31/59/23 40/64/23 34/60/23
f 41/61/24 42/178/24 43/62/24
f 40/64/1 44/179/1 41/65/1
f 34/66/7 41/61/7 38/63/7
f 37/67/4 39/72/4 44/68/4
f 45/69/2 46/180/2 43/70/2
f 39/72/25 46/181/25 45/73/25
f 39/54/26 38/177/26 43/74/26
f 41/65/27 44/179/27 45/76/27
f 15/78/28 48/182/28 49/79/28
f 8/81/3 50/154/3 14/82/3
f 12/84/2 15/78/2 47/80/2
f 23/86/7 47/152/7 50/87/7
f 6/89/29 51/183/29 52/90/29
f 1/91/4 7/134/4 53/92/4
f 9/94/7 54/136/7 6/95/7
f 2/97/3 53/138/3 54/98/3
f 55/100/30 56/184/30 57/101/30
f 23/103/2 58/173/2 55/104/2
f 5/106/1 55/100/1 10/102/1
f 8/108/12 11/169/12 58/109/12
f 3/111/31 59/185/31 60/112/31
f 12/113/12 61/143/12 62/114/12
f 1/116/2 4/145/2 61/117/2
f 13/119/3 62/147/3 3/120/3
f 17/122/3 16/125/3 64/123/3
f 13/83/32 64/123/32 16/125/32
f 9/126/33 17/186/33 63/127/33
f 2/128/34 63/187/34 64/129/34
f 52/131/1 51/188/1 66/132/1
f 7/134/35 52/189/35 65/135/35
f 54/136/36 66/190/36 51/137/36
f 53/138/37 65/191/37 66/139/37
f 68/140/4 60/192/4 59/141/4
f 61/143/38 68/193/38 67/144/38
f 4/145/39 60/194/39 68/146/39
f 62/147/40 67/195/40 59/148/40
f 70/149/41 71/196/41 72/150/41
f 47/152/42 49/164/42 70/153/42
f 50/154/43 70/149/43 69/151/43
f 14/155/44 69/160/44 48/156/44
f 73/157/12 74/197/12 72/158/12
f 69/160/45 72/198/45 74/161/45
f 48/162/46 74/197/46 73/157/46
f 49/164/47 73/199/47 71/165/47
f 56/166/7 75/200/7 76/167/7
f 11/169/48 76/201/48 75/170/48
f 10/171/49 57/202/49 76/172/49
f 58/173/50 75/203/50 56/174/50
