# Blender v3.0.0 OBJ File: ''
# www.blender.org
mtllib poop.mtl
o Icosphere
v 0.000000 -4.005394 0.000000
v 2.898332 -1.791290 2.105737
v -1.107043 -1.791291 3.407185
v -3.582529 -1.791275 0.000000
v -1.107043 -1.791291 -3.407185
v 2.898332 -1.791290 -2.105737
v 1.107043 1.791291 3.407185
v -2.898332 1.791290 2.105737
v -2.898332 1.791290 -2.105737
v 1.107043 1.791291 -3.407185
v 3.582529 1.791275 0.000000
v 0.000000 4.005394 0.000000
v -0.650698 -3.407206 2.002678
v 1.703585 -3.407205 1.237712
v 1.052893 -2.105786 3.240410
v 3.407179 -2.105779 0.000000
v 1.703585 -3.407205 -1.237712
v -2.105755 -3.407195 0.000000
v -2.756469 -2.105780 2.002684
v -0.650698 -3.407206 -2.002678
v -2.756469 -2.105780 -2.002684
v 1.052893 -2.105786 -3.240410
v 3.809361 0.000000 1.237717
v 3.809361 0.000000 -1.237717
v 0.000000 0.000000 4.005393
v 2.354313 0.000000 3.240430
v -3.809361 0.000000 1.237717
v -2.354313 0.000000 3.240430
v -2.354313 0.000000 -3.240430
v -3.809361 0.000000 -1.237717
v 2.354313 0.000000 -3.240430
v 0.000000 0.000000 -4.005393
v 2.756469 2.105780 2.002684
v -1.052893 2.105786 3.240410
v -3.407179 2.105779 0.000000
v -1.052893 2.105786 -3.240410
v 2.756469 2.105780 -2.002684
v 0.650698 3.407206 2.002678
v 2.105755 3.407195 0.000000
v -1.703585 3.407205 1.237712
v -1.703585 3.407205 -1.237712
v 0.650698 3.407206 -2.002678
v 3.858959 6.243973 -1.273785
v 2.403903 6.243984 -3.276462
v 4.509674 4.942559 -3.276469
v -0.008968 6.201581 -4.032885
v -2.363250 6.201580 -3.267920
v -1.712559 4.900162 -5.270617
v 2.756887 -3.484669 -8.484714
v 4.602325 -3.170173 -7.350040
v -0.650319 -1.378883 -8.484734
v 0.596951 -3.170175 -8.651489
v 4.058306 -1.378883 -8.484734
v 5.513354 -1.378883 -6.482021
v 1.703993 -1.378883 -9.249697
vt 0.181819 0.000000
vt 0.227273 0.078731
vt 0.136365 0.078731
vt 0.272728 0.157461
vt 0.318182 0.078731
vt 0.363637 0.157461
vt 0.909091 0.000000
vt 0.954545 0.078731
vt 0.863636 0.078731
vt 0.727273 0.000000
vt 0.772727 0.078731
vt 0.681818 0.078731
vt 0.545455 0.000000
vt 0.590909 0.078731
vt 0.500000 0.078731
vt 0.318182 0.236191
vt 0.090910 0.157461
vt 0.181819 0.157461
vt 0.136365 0.236191
vt 0.818182 0.157461
vt 0.909091 0.157461
vt 0.863636 0.236191
vt 0.636364 0.157461
vt 0.727273 0.157461
vt 0.681818 0.236191
vt 0.590909 0.236191
vt 0.500000 0.236191
vt 0.500000 0.236191
vt 0.590909 0.236191
vt 0.227273 0.236191
vt 0.045455 0.236191
vt 0.772727 0.236191
vt 0.545455 0.157461
vt 0.636364 0.157461
vt 0.545455 0.157461
vt 0.409092 0.236191
vt 0.454546 0.157461
vt 0.454546 0.157461
vt 0.409092 0.236191
vt 0.181819 0.314921
vt 0.272728 0.314921
vt 0.227273 0.393651
vt 0.000000 0.314921
vt 0.090910 0.314921
vt 0.045455 0.393651
vt 0.727273 0.314921
vt 0.818182 0.314921
vt 0.772727 0.393651
vt 0.545455 0.314921
vt 0.636364 0.314921
vt 0.590909 0.393651
vt 0.363637 0.314921
vt 0.454546 0.314921
vt 0.409092 0.393651
vt 0.500000 0.393651
vt 0.454546 0.472382
vt 0.500000 0.393651
vt 0.454546 0.314921
vt 0.681818 0.393651
vt 0.636364 0.472382
vt 0.681818 0.393651
vt 0.636364 0.314921
vt 0.863636 0.393651
vt 0.818182 0.472382
vt 0.909091 0.314921
vt 0.136365 0.393651
vt 0.090910 0.472382
vt 0.318182 0.393651
vt 0.272728 0.472382
vt 0.681818 0.236191
vt 0.954545 0.236191
vt 1.000000 0.157461
vt 0.409092 0.078731
vt 0.363637 0.000000
vt 0.409092 0.393651
vt 0.590909 0.393651
vn 0.1024 -0.9435 0.3151
vn 0.7002 -0.6617 0.2680
vn -0.2680 -0.9435 0.1947
vn -0.2680 -0.9435 -0.1947
vn 0.1024 -0.9435 -0.3151
vn 0.9050 -0.3304 0.2680
vn 0.0247 -0.3304 0.9435
vn -0.8897 -0.3304 0.3151
vn -0.5746 -0.3304 -0.7488
vn 0.0750 0.9701 -0.2307
vn 0.8026 -0.1256 0.5831
vn -0.3066 -0.1256 0.9435
vn -0.9921 -0.1256 0.0000
vn -0.1564 -0.9665 0.2033
vn 0.7335 -0.5598 0.3855
vn 0.4089 0.6617 0.6284
vn -0.4713 0.6617 0.5831
vn -0.7002 0.6617 -0.2680
vn 0.0385 0.6617 -0.7488
vn 0.7240 0.6617 -0.1947
vn 0.2680 0.9435 -0.1947
vn -0.1876 -0.3035 -0.9342
vn 0.4089 0.6617 -0.6284
vn -0.1024 0.9435 -0.3151
vn -0.9464 -0.3035 -0.1103
vn -0.4713 0.6617 -0.5831
vn -0.3313 0.9435 0.0000
vn -0.6071 0.7947 0.0000
vn -0.7002 0.6617 0.2680
vn -0.1024 0.9435 0.3151
vn -0.1876 0.7947 0.5773
vn 0.0385 0.6617 0.7488
vn 0.2680 0.9435 0.1947
vn 0.4911 0.7947 0.3568
vn 0.7240 0.6617 0.1947
vn 0.8897 0.3304 -0.3151
vn 0.7947 0.1876 -0.5773
vn 0.5746 0.3304 -0.7488
vn -0.0247 0.3304 -0.9435
vn -0.3035 0.1876 -0.9342
vn -0.5346 0.3304 -0.7779
vn -0.9050 0.3304 -0.2680
vn -0.9822 0.1876 0.0000
vn -0.9050 0.3304 0.2680
vn -0.5346 0.3304 0.7779
vn -0.3035 0.1876 0.9342
vn -0.0247 0.3304 0.9435
vn 0.5746 0.3304 0.7488
vn 0.7947 0.1876 0.5773
vn 0.8897 0.3304 0.3151
vn 0.3066 0.1256 -0.9435
vn 0.2389 0.9554 -0.1736
vn -0.8200 -0.5598 -0.1192
vn -0.8026 0.1256 -0.5831
vn -0.7947 -0.1876 -0.5773
vn -0.8897 -0.3304 -0.3151
vn -0.8026 0.1256 0.5831
vn -0.7947 -0.1876 0.5773
vn -0.5746 -0.3304 0.7488
vn 0.3066 0.1256 0.9435
vn 0.3035 -0.1876 0.9342
vn 0.5346 -0.3304 0.7779
vn 0.9921 0.1256 0.0000
vn 0.9822 -0.1876 0.0000
vn 0.9050 -0.3304 -0.2680
vn 0.4713 -0.6617 -0.5831
vn 0.1876 -0.7947 -0.5773
vn -0.0385 -0.6617 -0.7488
vn -0.4089 -0.6617 -0.6284
vn -0.4911 -0.7947 -0.3568
vn -0.7240 -0.6617 -0.1947
vn -0.7240 -0.6617 0.1947
vn -0.4911 -0.7947 0.3568
vn -0.4089 -0.6617 0.6284
vn 0.7002 -0.6617 -0.2680
vn 0.6071 -0.7947 0.0000
vn 0.3313 -0.9435 0.0000
vn -0.0385 -0.6617 0.7488
vn 0.1876 -0.7947 0.5773
vn 0.4713 -0.6617 0.5831
vn 0.4911 0.7947 -0.3568
vn 0.8305 -0.3035 0.4671
vn -0.6429 0.6071 0.4671
vn -0.1876 0.7947 -0.5773
vn 0.7009 -0.3035 -0.6455
vn 0.2456 0.6071 0.7558
vn 0.5346 -0.3304 -0.7779
vn -0.3066 -0.1256 -0.9435
vn 0.8026 -0.1256 -0.5831
vn 0.3035 -0.1876 -0.9342
vn 0.0247 -0.3304 -0.9435
vn -0.0913 0.9554 -0.2809
vn 0.0071 -0.9665 0.2564
usemtl Material.001
s off
f 1/1/1 14/2/1 13/3/1
f 2/4/2 14/5/2 16/6/2
f 1/7/3 13/8/3 18/9/3
f 1/10/4 18/11/4 20/12/4
f 1/13/5 20/14/5 17/15/5
f 2/4/6 16/6/6 23/16/6
f 3/17/7 15/18/7 25/19/7
f 4/20/8 19/21/8 27/22/8
f 5/23/9 21/24/9 29/25/9
f 32/26/10 31/27/10 53/28/10 55/29/10
f 2/4/11 23/16/11 26/30/11
f 3/17/12 25/19/12 28/31/12
f 4/20/13 27/22/13 30/32/13
f 22/33/14 5/23/14 52/34/14 49/35/14
f 24/36/15 6/37/15 50/38/15 54/39/15
f 7/40/16 33/41/16 38/42/16
f 8/43/17 34/44/17 40/45/17
f 9/46/18 35/47/18 41/48/18
f 10/49/19 36/50/19 42/51/19
f 11/52/20 37/53/20 39/54/20
f 39/54/21 42/55/21 12/56/21
f 37/53/22 42/55/22 44/57/22 45/58/22
f 37/53/23 10/49/23 42/55/23
f 42/51/24 41/59/24 12/60/24
f 36/50/25 41/59/25 47/61/25 48/62/25
f 36/50/26 9/46/26 41/59/26
f 41/48/27 40/63/27 12/64/27
f 41/48/28 35/47/28 40/63/28
f 35/47/29 8/65/29 40/63/29
f 40/45/30 38/66/30 12/67/30
f 40/45/31 34/44/31 38/66/31
f 34/44/32 7/40/32 38/66/32
f 38/42/33 39/68/33 12/69/33
f 38/42/34 33/41/34 39/68/34
f 33/41/35 11/52/35 39/68/35
f 24/36/36 37/53/36 11/52/36
f 24/36/37 31/27/37 37/53/37
f 31/27/38 10/49/38 37/53/38
f 32/26/39 36/50/39 10/49/39
f 32/26/40 29/25/40 36/50/40
f 29/25/41 9/46/41 36/50/41
f 30/32/42 35/47/42 9/46/42
f 30/32/43 27/22/43 35/47/43
f 27/22/44 8/65/44 35/47/44
f 28/31/45 34/44/45 8/43/45
f 28/31/46 25/19/46 34/44/46
f 25/19/47 7/40/47 34/44/47
f 26/30/48 33/41/48 7/40/48
f 26/30/49 23/16/49 33/41/49
f 23/16/50 11/52/50 33/41/50
f 31/27/51 32/26/51 10/49/51
f 31/27/52 24/36/52 54/39/52 53/28/52
f 5/23/53 29/25/53 51/70/53 52/34/53
f 29/25/54 30/32/54 9/46/54
f 29/25/55 21/24/55 30/32/55
f 21/24/56 4/20/56 30/32/56
f 27/22/57 28/71/57 8/65/57
f 27/22/58 19/21/58 28/71/58
f 19/21/59 3/72/59 28/71/59
f 25/19/60 26/30/60 7/40/60
f 25/19/61 15/18/61 26/30/61
f 15/18/62 2/4/62 26/30/62
f 23/16/63 24/36/63 11/52/63
f 23/16/64 16/6/64 24/36/64
f 16/6/65 6/37/65 24/36/65
f 17/15/66 22/33/66 6/37/66
f 17/15/67 20/14/67 22/33/67
f 20/14/68 5/23/68 22/33/68
f 20/12/69 21/24/69 5/23/69
f 20/12/70 18/11/70 21/24/70
f 18/11/71 4/20/71 21/24/71
f 18/9/72 19/21/72 4/20/72
f 18/9/73 13/8/73 19/21/73
f 13/8/74 3/72/74 19/21/74
f 16/6/75 17/73/75 6/37/75
f 16/6/76 14/5/76 17/73/76
f 14/5/77 1/74/77 17/73/77
f 13/3/78 15/18/78 3/17/78
f 13/3/79 14/2/79 15/18/79
f 14/2/80 2/4/80 15/18/80
f 43/75/81 45/58/81 44/57/81
f 39/54/82 37/53/82 45/58/82 43/75/82
f 42/55/83 39/54/83 43/75/83 44/57/83
f 46/76/84 48/62/84 47/61/84
f 42/51/85 36/50/85 48/62/85 46/76/85
f 41/59/86 42/51/86 46/76/86 47/61/86
f 50/38/87 49/35/87 53/28/87
f 52/34/88 51/70/88 55/29/88
f 50/38/89 53/28/89 54/39/89
f 53/28/90 49/35/90 55/29/90
f 49/35/91 52/34/91 55/29/91
f 29/25/92 32/26/92 55/29/92 51/70/92
f 6/37/93 22/33/93 49/35/93 50/38/93
