# Blender v2.93.6 OBJ File: ''
# www.blender.org
mtllib depression.mtl
o Cube.002
v 1.000000 1.000000 -1.000000
v -1.000000 1.000000 -1.000000
v -1.000000 1.000000 1.000000
v 1.000000 1.000000 1.000000
v 1.000000 -1.000000 1.000000
v -1.000000 -1.000000 1.000000
v -1.000000 -1.000000 -1.000000
v 1.000000 -1.000000 -1.000000
vt 0.083333 1.000000
vt 0.916667 0.000000
vt 0.916667 1.000000
vt 0.916667 1.000000
vt 0.083333 0.000000
vt 0.916667 0.000000
vt 0.083333 1.000000
vt 0.916667 0.000000
vt 0.916667 1.000000
vt 0.083333 1.000000
vt 0.083333 0.000000
vt 0.916667 0.000000
vt 0.083333 0.000000
vt 0.083333 0.000000
vt 0.916667 1.000000
vt 0.083333 1.000000
vn 0.0000 1.0000 0.0000
vn 0.0000 -0.0000 1.0000
vn -1.0000 -0.0000 0.0000
vn 0.0000 -1.0000 -0.0000
vn 1.0000 -0.0000 0.0000
vn 0.0000 0.0000 -1.0000
usemtl Material.001
s 1
f 2/1/1 4/2/1 1/3/1
f 4/4/2 6/5/2 5/6/2
f 3/7/3 7/8/3 6/5/3
f 8/9/4 6/5/4 7/10/4
f 1/3/5 5/11/5 8/12/5
f 2/1/6 8/12/6 7/13/6
f 2/1/1 3/14/1 4/2/1
f 4/4/2 3/7/2 6/5/2
f 3/7/3 2/15/3 7/8/3
f 8/9/4 5/6/4 6/5/4
f 1/3/5 4/16/5 5/11/5
f 2/1/6 1/3/6 8/12/6
