# Blender v2.93.6 OBJ File: ''
# www.blender.org
mtllib hmmmmedgesplit.mtl
o Cube_Cube.001
v -1.091533 1.091533 -1.091533
v -1.091533 -1.091533 -1.091533
v -7.815458 -1.091533 -1.091533
v -7.815458 1.091533 -1.091533
v 1.091533 1.091533 -1.091533
v 1.091533 1.091533 -7.514266
v -1.091533 1.091533 -7.514266
v 1.091533 -1.091533 1.091533
v 1.091533 -1.091533 -1.091533
v 6.907458 -1.091533 -1.091533
v 6.907458 -1.091533 1.091533
v -1.091533 1.091533 1.091533
v -1.091533 -1.091533 1.091533
v -1.091533 -1.091533 6.009009
v -1.091533 1.091533 6.009009
v 0.355376 -5.327451 0.355376
v 0.355376 -5.327451 -0.355376
v -0.821563 1.374329 -0.821563
v 0.821563 1.374329 -0.821563
v 0.821563 1.374329 0.821563
v 0.821563 2.110299 -0.821563
v 0.821563 2.110299 0.821563
v 1.091533 1.091533 1.091533
v -0.821563 1.374329 0.821563
v -0.821563 2.110299 0.821563
v 0.641042 2.481222 0.641042
v -0.641042 2.481222 0.641042
v -0.821563 2.110299 -0.821563
v 0.641042 2.481222 -0.641042
v -0.641042 2.481222 -0.641042
v -0.567900 3.710630 -0.567900
v 0.567900 3.710630 -0.567900
v 0.567900 3.710630 0.567900
v 0.634634 5.570402 -0.634634
v 0.634634 5.570402 0.634634
v -0.567900 3.710630 0.567900
v -0.634634 5.570402 0.634634
v 0.634634 5.996824 0.634634
v -0.634634 5.996824 0.634634
v -0.634634 5.570402 -0.634634
v 0.634634 5.996824 -0.634634
v 0.330969 6.545826 -0.330969
v 0.330969 6.545826 0.330969
v -0.634634 5.996824 -0.634634
v -0.330969 6.545826 -0.330969
v -0.330969 6.545826 0.330969
v 1.091533 1.091533 6.009009
v -1.957319 1.957319 10.945716
v 1.957319 1.957319 10.945716
v 1.091533 -1.091533 6.009009
v 0.158910 0.158910 -10.307433
v -0.158910 0.158910 -10.307433
v -1.091533 -1.091533 -7.514266
v 1.091533 -1.091533 -7.514266
v 6.907458 1.091533 -1.091533
v 10.720659 2.222143 -2.222143
v 10.720659 -2.222143 -2.222143
v 6.907458 1.091533 1.091533
v -13.086013 -0.107363 -0.107363
v -13.086013 0.107363 -0.107363
v -7.815458 1.091533 1.091533
v -7.815458 -1.091533 1.091533
v -0.355376 -5.327451 -0.355376
v -0.355376 -5.327451 0.355376
v -0.158910 -0.158910 -10.307433
v 0.158910 -0.158910 -10.307433
v -13.086013 -0.107363 0.107363
v -13.086013 0.107363 0.107363
v -1.957319 -1.957319 10.945716
v 1.957319 -1.957319 10.945716
v 0.824174 -0.824175 12.077317
v -0.824174 -0.824175 12.077317
v 0.824174 0.824173 12.077317
v -0.824174 0.824173 12.077317
v 10.720659 2.222143 2.222143
v 10.720659 -2.222143 2.222143
v -1.091533 1.091533 -1.091533
v -1.091533 1.091533 -1.091533
v -1.091533 1.091533 -1.091533
v -1.091533 1.091533 -1.091533
v -1.091533 1.091533 -1.091533
v -1.091533 -1.091533 -1.091533
v -1.091533 -1.091533 -1.091533
v -1.091533 -1.091533 -1.091533
v -1.091533 -1.091533 -1.091533
v -1.091533 -1.091533 -1.091533
v -7.815458 1.091533 -1.091533
v -7.815458 1.091533 -1.091533
v -7.815458 1.091533 -1.091533
v 1.091533 1.091533 -1.091533
v 1.091533 1.091533 -1.091533
v 1.091533 1.091533 -1.091533
v 1.091533 1.091533 -1.091533
v 1.091533 1.091533 -1.091533
v 1.091533 1.091533 -7.514266
v 1.091533 1.091533 -7.514266
v 1.091533 1.091533 -7.514266
v -1.091533 1.091533 -7.514266
v -1.091533 1.091533 -7.514266
v -1.091533 1.091533 -7.514266
v 1.091533 -1.091533 -1.091533
v 1.091533 -1.091533 -1.091533
v 1.091533 -1.091533 -1.091533
v 1.091533 -1.091533 -1.091533
v 1.091533 -1.091533 -1.091533
v 6.907458 -1.091533 -1.091533
v 6.907458 -1.091533 -1.091533
v 6.907458 -1.091533 -1.091533
v -7.815458 1.091533 1.091533
v -7.815458 1.091533 1.091533
v -7.815458 1.091533 1.091533
v -13.086013 0.107363 0.107363
v -13.086013 0.107363 0.107363
v -1.091533 1.091533 1.091533
v -1.091533 1.091533 1.091533
v -1.091533 1.091533 1.091533
v -1.091533 1.091533 1.091533
v -1.091533 1.091533 1.091533
v 0.821563 1.374329 0.821563
v 0.821563 1.374329 0.821563
v 0.821563 1.374329 0.821563
v -0.821563 1.374329 0.821563
v -0.821563 1.374329 0.821563
v -0.821563 1.374329 0.821563
v -1.091533 -1.091533 1.091533
v -1.091533 -1.091533 1.091533
v -1.091533 -1.091533 1.091533
v -1.091533 -1.091533 1.091533
v -1.091533 -1.091533 1.091533
v -1.091533 -1.091533 6.009009
v -1.091533 -1.091533 6.009009
v -1.091533 -1.091533 6.009009
v 0.355376 -5.327451 -0.355376
v 0.355376 -5.327451 -0.355376
v -0.821563 1.374329 -0.821563
v -0.821563 1.374329 -0.821563
v -0.821563 1.374329 -0.821563
v 0.821563 1.374329 -0.821563
v 0.821563 1.374329 -0.821563
v 0.821563 1.374329 -0.821563
v 0.821563 2.110299 -0.821563
v 0.821563 2.110299 -0.821563
v 0.821563 2.110299 -0.821563
v 0.821563 2.110299 0.821563
v 0.821563 2.110299 0.821563
v 0.821563 2.110299 0.821563
v 1.091533 1.091533 1.091533
v 1.091533 1.091533 1.091533
v 1.091533 1.091533 1.091533
v 1.091533 1.091533 1.091533
v 1.091533 1.091533 1.091533
v -0.821563 2.110299 0.821563
v -0.821563 2.110299 0.821563
v -0.821563 2.110299 0.821563
v -0.641042 2.481222 0.641042
v -0.641042 2.481222 0.641042
v -0.641042 2.481222 0.641042
v -0.821563 2.110299 -0.821563
v -0.821563 2.110299 -0.821563
v -0.821563 2.110299 -0.821563
v 0.641042 2.481222 -0.641042
v 0.641042 2.481222 -0.641042
v 0.641042 2.481222 -0.641042
v -0.641042 2.481222 -0.641042
v -0.641042 2.481222 -0.641042
v -0.641042 2.481222 -0.641042
v 0.567900 3.710630 -0.567900
v 0.567900 3.710630 -0.567900
v 0.567900 3.710630 -0.567900
v -7.815458 -1.091533 -1.091533
v -7.815458 -1.091533 -1.091533
v -7.815458 -1.091533 -1.091533
v 0.567900 3.710630 0.567900
v 0.567900 3.710630 0.567900
v 0.567900 3.710630 0.567900
v 0.634634 5.570402 0.634634
v 0.634634 5.570402 0.634634
v 0.634634 5.570402 0.634634
v -0.567900 3.710630 0.567900
v -0.567900 3.710630 0.567900
v -0.567900 3.710630 0.567900
v -0.634634 5.570402 0.634634
v -0.634634 5.570402 0.634634
v -0.634634 5.570402 0.634634
v 0.634634 5.996824 0.634634
v 0.634634 5.996824 0.634634
v 0.634634 5.996824 0.634634
v -0.634634 5.996824 0.634634
v -0.634634 5.996824 0.634634
v -0.634634 5.996824 0.634634
v -0.567900 3.710630 -0.567900
v -0.567900 3.710630 -0.567900
v -0.567900 3.710630 -0.567900
v -0.634634 5.570402 -0.634634
v -0.634634 5.570402 -0.634634
v -0.634634 5.570402 -0.634634
v 0.634634 5.996824 -0.634634
v 0.634634 5.996824 -0.634634
v 0.634634 5.996824 -0.634634
v 0.330969 6.545826 -0.330969
v 0.330969 6.545826 -0.330969
v -13.086013 0.107363 -0.107363
v -13.086013 0.107363 -0.107363
v -0.634634 5.996824 -0.634634
v -0.634634 5.996824 -0.634634
v -0.634634 5.996824 -0.634634
v -0.330969 6.545826 -0.330969
v -0.330969 6.545826 -0.330969
v -0.330969 6.545826 0.330969
v -0.330969 6.545826 0.330969
v -1.091533 1.091533 6.009009
v -1.091533 1.091533 6.009009
v -1.091533 1.091533 6.009009
v 1.091533 1.091533 6.009009
v 1.091533 1.091533 6.009009
v 1.091533 1.091533 6.009009
v -1.957319 1.957319 10.945716
v -1.957319 1.957319 10.945716
v -1.957319 1.957319 10.945716
v 1.957319 1.957319 10.945716
v 1.957319 1.957319 10.945716
v 1.957319 1.957319 10.945716
v 0.330969 6.545826 0.330969
v 0.330969 6.545826 0.330969
v -1.091533 -1.091533 -7.514266
v -1.091533 -1.091533 -7.514266
v -1.091533 -1.091533 -7.514266
v 1.091533 -1.091533 -7.514266
v 1.091533 -1.091533 -7.514266
v 1.091533 -1.091533 -7.514266
v 6.907458 1.091533 -1.091533
v 6.907458 1.091533 -1.091533
v 6.907458 1.091533 -1.091533
v 6.907458 1.091533 1.091533
v 6.907458 1.091533 1.091533
v 6.907458 1.091533 1.091533
v -13.086013 -0.107363 -0.107363
v -13.086013 -0.107363 -0.107363
v -7.815458 -1.091533 1.091533
v -7.815458 -1.091533 1.091533
v -7.815458 -1.091533 1.091533
v -0.355376 -5.327451 -0.355376
v -0.355376 -5.327451 -0.355376
v -0.355376 -5.327451 0.355376
v -0.355376 -5.327451 0.355376
v -0.158910 -0.158910 -10.307433
v -0.158910 -0.158910 -10.307433
v 0.158910 -0.158910 -10.307433
v 0.158910 -0.158910 -10.307433
v -13.086013 -0.107363 0.107363
v -13.086013 -0.107363 0.107363
v -1.957319 -1.957319 10.945716
v -1.957319 -1.957319 10.945716
v -1.957319 -1.957319 10.945716
v 1.957319 -1.957319 10.945716
v 1.957319 -1.957319 10.945716
v 1.957319 -1.957319 10.945716
v -0.824174 -0.824175 12.077317
v -0.824174 -0.824175 12.077317
v 0.824174 -0.824175 12.077317
v 0.824174 -0.824175 12.077317
v 0.824174 0.824173 12.077317
v 0.824174 0.824173 12.077317
v -0.824174 0.824173 12.077317
v -0.824174 0.824173 12.077317
v 10.720659 -2.222143 -2.222143
v 10.720659 -2.222143 -2.222143
v 10.720659 -2.222143 2.222143
v 10.720659 -2.222143 2.222143
v 1.091533 -1.091533 6.009009
v 1.091533 -1.091533 6.009009
v 1.091533 -1.091533 6.009009
v 0.641042 2.481222 0.641042
v 0.641042 2.481222 0.641042
v 0.641042 2.481222 0.641042
v 0.158910 0.158910 -10.307433
v 0.158910 0.158910 -10.307433
v -0.158910 0.158910 -10.307433
v -0.158910 0.158910 -10.307433
v 10.720659 2.222143 -2.222143
v 10.720659 2.222143 -2.222143
v 0.634634 5.570402 -0.634634
v 0.634634 5.570402 -0.634634
v 0.634634 5.570402 -0.634634
v 6.907458 -1.091533 1.091533
v 6.907458 -1.091533 1.091533
v 6.907458 -1.091533 1.091533
v 1.091533 -1.091533 1.091533
v 1.091533 -1.091533 1.091533
v 1.091533 -1.091533 1.091533
v 1.091533 -1.091533 1.091533
v 1.091533 -1.091533 1.091533
v 0.355376 -5.327451 0.355376
v 0.355376 -5.327451 0.355376
v 10.720659 2.222143 2.222143
v 10.720659 2.222143 2.222143
vt 0.834010 0.833755
vt 0.750952 0.833813
vt 0.750952 0.578246
vt 0.834010 0.578188
vt 0.000000 0.468899
vt 0.082968 0.469408
vt 0.082968 0.711862
vt 0.000000 0.711352
vt 0.436112 0.783655
vt 0.377415 0.783639
vt 0.377478 0.562338
vt 0.436176 0.562355
vt 0.582205 0.417226
vt 0.499318 0.417226
vt 0.499835 0.230276
vt 0.582721 0.230276
vt 0.999891 0.720215
vt 0.916896 0.720215
vt 0.946494 0.561238
vt 0.973515 0.561238
vt 0.082968 0.469408
vt 0.000000 0.468899
vt 0.010786 0.457420
vt 0.073233 0.457804
vt 0.906343 0.925683
vt 0.843876 0.925683
vt 0.843953 0.897740
vt 0.906421 0.897740
vt 0.917005 0.937099
vt 0.834010 0.937099
vt 0.843876 0.925683
vt 0.906343 0.925683
vt 0.613939 0.742520
vt 0.696934 0.742520
vt 0.686273 0.753936
vt 0.623805 0.753936
vt 0.916896 0.376125
vt 0.999963 0.376125
vt 0.989691 0.390864
vt 0.927169 0.390864
vt 0.927169 0.413554
vt 0.989691 0.413554
vt 0.982822 0.429015
vt 0.934038 0.429015
vt 0.623805 0.753936
vt 0.686273 0.753936
vt 0.686350 0.781879
vt 0.623882 0.781879
vt 0.927169 0.390864
vt 0.989691 0.390864
vt 0.989691 0.413554
vt 0.927169 0.413554
vt 0.991125 0.196511
vt 0.928673 0.196467
vt 0.928673 0.168466
vt 0.991125 0.168510
vt 0.983941 0.154495
vt 0.935210 0.154461
vt 0.937859 0.107729
vt 0.981030 0.107759
vt 0.991125 0.168510
vt 0.928673 0.168466
vt 0.935210 0.154461
vt 0.983941 0.154495
vt 0.906421 0.897740
vt 0.843953 0.897740
vt 0.850569 0.883203
vt 0.899310 0.883203
vt 0.623882 0.781879
vt 0.686350 0.781879
vt 0.679240 0.796416
vt 0.630498 0.796416
vt 0.896543 0.836341
vt 0.853362 0.836341
vt 0.851126 0.765898
vt 0.899381 0.765898
vt 0.899310 0.883203
vt 0.850569 0.883203
vt 0.853362 0.836341
vt 0.896543 0.836341
vt 0.630498 0.796416
vt 0.679240 0.796416
vt 0.676472 0.843277
vt 0.633292 0.843277
vt 0.934038 0.429015
vt 0.982822 0.429015
vt 0.980039 0.468548
vt 0.936821 0.468548
vt 0.934281 0.524394
vt 0.982578 0.524394
vt 0.982578 0.537540
vt 0.934281 0.537540
vt 0.633292 0.843277
vt 0.676472 0.843277
vt 0.679310 0.913721
vt 0.631055 0.913721
vt 0.936821 0.468548
vt 0.980039 0.468548
vt 0.982578 0.524394
vt 0.934281 0.524394
vt 0.981030 0.107759
vt 0.937859 0.107729
vt 0.935443 0.036932
vt 0.983686 0.036966
vt 0.899426 0.749708
vt 0.851171 0.749708
vt 0.862292 0.728100
vt 0.887457 0.728100
vt 0.983686 0.036966
vt 0.935443 0.036932
vt 0.935443 0.020708
vt 0.983686 0.020742
vt 0.899381 0.765898
vt 0.851126 0.765898
vt 0.851171 0.749708
vt 0.899426 0.749708
vt 0.631055 0.913721
vt 0.679310 0.913721
vt 0.679355 0.929911
vt 0.631100 0.929911
vt 0.585885 0.442537
vt 0.585885 0.417379
vt 0.610872 0.417226
vt 0.610872 0.442384
vt 0.631100 0.929911
vt 0.679355 0.929911
vt 0.667386 0.951519
vt 0.642221 0.951519
vt 0.934281 0.537540
vt 0.982578 0.537540
vt 0.971023 0.561238
vt 0.945836 0.561238
vt 0.983686 0.020742
vt 0.935443 0.020708
vt 0.946440 0.000000
vt 0.971600 0.000018
vt 0.647283 0.185628
vt 0.730253 0.185628
vt 0.762719 0.376125
vt 0.613940 0.376125
vt 0.147590 0.298432
vt 0.065284 0.309653
vt 0.047423 0.178646
vt 0.129729 0.167425
vt 0.646143 0.000000
vt 0.729113 0.000000
vt 0.730253 0.185628
vt 0.647283 0.185628
vt 0.350688 0.000000
vt 0.433575 0.000000
vt 0.434091 0.186950
vt 0.351205 0.186950
vt 0.000000 0.711352
vt 0.082968 0.711862
vt 0.045790 0.821537
vt 0.033711 0.821463
vt 0.834010 0.376354
vt 0.916896 0.376125
vt 0.916896 0.620302
vt 0.834010 0.620531
vt 0.845605 0.351975
vt 0.762719 0.351747
vt 0.762719 0.107570
vt 0.845605 0.107799
vt 0.928673 0.222683
vt 0.845605 0.222683
vt 0.845605 0.049992
vt 0.928673 0.049992
vt 0.190068 0.221055
vt 0.273126 0.221055
vt 0.316679 0.368015
vt 0.147590 0.368015
vt 0.187120 0.368015
vt 0.269529 0.368015
vt 0.268171 0.589051
vt 0.185762 0.589051
vt 0.190223 0.000000
vt 0.273281 0.000000
vt 0.273126 0.221055
vt 0.190068 0.221055
vt 0.623579 0.376125
vt 0.690880 0.376125
vt 0.690880 0.597425
vt 0.623579 0.597425
vt 0.834010 0.578188
vt 0.750952 0.578246
vt 0.787839 0.376131
vt 0.796009 0.376125
vt 0.585885 0.873625
vt 0.518583 0.873625
vt 0.518583 0.617774
vt 0.585885 0.617774
vt 0.518583 0.874660
vt 0.436176 0.875167
vt 0.436176 0.619617
vt 0.518583 0.619111
vt 0.082988 0.457420
vt 0.141686 0.457425
vt 0.141666 0.713275
vt 0.082968 0.713271
vt 0.140496 0.453767
vt 0.113699 0.457420
vt 0.111118 0.438485
vt 0.137915 0.434832
vt 0.065284 0.309653
vt 0.147590 0.298432
vt 0.137915 0.434832
vt 0.111118 0.438485
vt 0.750952 0.833813
vt 0.833927 0.833813
vt 0.804741 0.995391
vt 0.777727 0.995391
vt 0.917005 0.728100
vt 1.000000 0.728100
vt 0.973624 0.887078
vt 0.946603 0.887078
vt 0.597965 0.442546
vt 0.597965 0.454637
vt 0.585885 0.454629
vt 0.585885 0.442537
vt 0.834010 0.620531
vt 0.916896 0.620302
vt 0.883831 0.728067
vt 0.871764 0.728100
vt 0.845605 0.107799
vt 0.762719 0.107570
vt 0.800473 0.000000
vt 0.812540 0.000033
vt 0.928673 0.049992
vt 0.845605 0.049992
vt 0.881092 0.000000
vt 0.893186 0.000000
vt 0.585885 0.454660
vt 0.594037 0.454637
vt 0.594037 0.462801
vt 0.585885 0.462823
vt 0.585885 0.617774
vt 0.518583 0.617774
vt 0.526974 0.417226
vt 0.533594 0.417226
vt 0.518583 0.619111
vt 0.436176 0.619617
vt 0.468617 0.417275
vt 0.476722 0.417226
vt 0.082968 0.713271
vt 0.141666 0.713275
vt 0.141686 0.913824
vt 0.135912 0.913823
vt 0.147590 0.054553
vt 0.000000 0.074674
vt 0.034491 0.008472
vt 0.096637 0.000000
vt 0.351205 0.186950
vt 0.434091 0.186950
vt 0.465309 0.376009
vt 0.316679 0.376009
vt 0.129729 0.167425
vt 0.047423 0.178646
vt 0.000000 0.074674
vt 0.147590 0.054553
vt 0.582721 0.230276
vt 0.499835 0.230276
vt 0.465309 0.041217
vt 0.613940 0.041217
vt 0.316679 0.826772
vt 0.367496 0.826772
vt 0.367496 0.889493
vt 0.316679 0.889493
vt 0.613940 0.041217
vt 0.465309 0.041217
vt 0.511294 0.000000
vt 0.573879 0.000000
vt 0.427669 0.783655
vt 0.427669 0.932610
vt 0.367496 0.889493
vt 0.367496 0.826772
vt 0.316679 0.376009
vt 0.465309 0.376009
vt 0.425248 0.417226
vt 0.362664 0.417226
vt 0.147590 0.736074
vt 0.316329 0.736540
vt 0.316329 0.905501
vt 0.147590 0.905035
vt 0.623579 0.597425
vt 0.690880 0.597425
vt 0.750952 0.742520
vt 0.613940 0.742520
vt 0.436176 0.562355
vt 0.377478 0.562338
vt 0.316679 0.417226
vt 0.436175 0.417260
vt 0.185762 0.589051
vt 0.268171 0.589051
vt 0.315358 0.736074
vt 0.147590 0.736074
vn 0.0000 0.0000 -1.0000
vn 0.0000 1.0000 0.0000
vn 0.0000 -1.0000 0.0000
vn -1.0000 0.0000 0.0000
vn 0.9852 -0.1712 0.0000
vn 0.0000 0.6905 -0.7233
vn 1.0000 0.0000 0.0000
vn 0.7233 0.6905 0.0000
vn -0.7233 0.6905 0.0000
vn 0.0000 0.6905 0.7233
vn 0.0000 0.4376 0.8992
vn 0.0000 -0.0000 1.0000
vn 0.0000 0.0594 -0.9982
vn 0.0000 0.4376 -0.8992
vn 0.8992 0.4376 0.0000
vn -0.8992 0.4376 0.0000
vn 0.9994 -0.0359 0.0000
vn 0.9982 0.0594 0.0000
vn -0.9982 0.0594 0.0000
vn 0.0000 0.0594 0.9982
vn -0.9994 -0.0359 0.0000
vn 0.0000 -0.0359 0.9994
vn 0.0000 -0.0359 -0.9994
vn 0.8751 0.4840 0.0000
vn -0.8751 0.4840 0.0000
vn 0.0000 0.4840 0.8751
vn 0.0000 0.4840 -0.8751
vn 0.0000 0.9850 -0.1727
vn 0.0000 0.9485 -0.3167
vn -0.2843 0.0000 -0.9587
vn -0.1836 0.0000 -0.9830
vn 0.0000 -0.1712 0.9852
vn 0.0000 -0.1712 -0.9852
vn -0.9852 -0.1712 0.0000
vn -0.9485 0.0000 -0.3167
vn 0.9485 0.0000 -0.3167
vn 0.0000 -0.9485 -0.3167
vn -0.1836 -0.0000 0.9830
vn -0.1836 0.9830 0.0000
vn -0.1836 -0.9830 0.0000
vn 0.0000 -0.7066 0.7076
vn 0.9850 0.0000 -0.1727
vn 0.0000 -0.9850 -0.1727
vn -0.9850 0.0000 -0.1727
vn -0.7066 0.0000 0.7076
vn 0.0000 0.7066 0.7076
vn 0.7066 0.0000 0.7076
vn -0.2843 0.0000 0.9587
vn -0.2843 -0.9587 0.0000
vn -0.2843 0.9587 0.0000
usemtl None
s 1
f 77/1/1 82/2/1 170/3/1 87/4/1
f 78/5/2 90/6/2 95/7/2 98/8/2
f 288/9/3 102/10/3 106/11/3 286/12/3
f 115/13/4 125/14/4 130/15/4 212/16/4
f 103/17/5 289/18/5 293/19/5 133/20/5
f 92/21/6 80/22/6 135/23/6 138/24/6
f 120/25/7 139/26/7 141/27/7 144/28/7
f 147/29/8 93/30/8 140/31/8 121/32/8
f 79/33/9 114/34/9 124/35/9 137/36/9
f 117/37/10 151/38/10 119/39/10 122/40/10
f 152/41/11 145/42/11 274/43/11 155/44/11
f 136/45/4 123/46/4 153/47/4 158/48/4
f 24/49/12 20/50/12 146/51/12 154/52/12
f 19/53/1 18/54/1 160/55/1 143/56/1
f 162/57/13 164/58/13 192/59/13 167/60/13
f 142/61/14 159/62/14 165/63/14 161/64/14
f 22/65/15 21/66/15 163/67/15 275/68/15
f 28/69/16 25/70/16 157/71/16 166/72/16
f 173/73/17 168/74/17 283/75/17 176/76/17
f 273/77/18 29/78/18 169/79/18 174/80/18
f 30/81/19 156/82/19 179/83/19 193/84/19
f 27/85/20 26/86/20 175/87/20 181/88/20
f 182/89/12 177/90/12 185/91/12 188/92/12
f 191/93/21 180/94/21 183/95/21 194/96/21
f 36/97/22 33/98/22 178/99/22 184/100/22
f 32/101/23 31/102/23 195/103/23 284/104/23
f 186/105/24 197/106/24 200/107/24 224/108/24
f 282/109/1 196/110/1 204/111/1 198/112/1
f 35/113/7 34/114/7 199/115/7 187/116/7
f 40/117/4 37/118/4 189/119/4 205/120/4
f 201/121/2 207/122/2 209/123/2 223/124/2
f 206/125/25 190/126/25 210/127/25 208/128/25
f 39/129/26 38/130/26 43/131/26 46/132/26
f 41/133/27 44/134/27 45/135/27 42/136/27
f 214/137/28 211/138/28 217/139/28 220/140/28
f 128/141/3 290/142/3 270/143/3 131/144/3
f 149/145/2 12/146/2 213/147/2 216/148/2
f 291/149/7 150/150/7 215/151/7 271/152/7
f 100/153/29 96/154/29 276/155/29 278/156/29
f 83/157/4 81/158/4 99/159/4 225/160/4
f 91/161/7 101/162/7 228/163/7 97/164/7
f 104/165/3 86/166/3 227/167/3 229/168/3
f 107/169/30 232/170/30 280/171/30 267/172/30
f 94/173/2 148/174/2 234/175/2 231/176/2
f 9/177/1 5/178/1 233/179/1 108/180/1
f 23/181/12 8/182/12 287/183/12 235/184/12
f 89/185/31 171/186/31 237/187/31 203/188/31
f 126/189/12 116/190/12 111/191/12 239/192/12
f 118/193/2 1/194/2 88/195/2 110/196/2
f 85/197/3 127/198/3 241/199/3 172/200/3
f 242/201/3 134/202/3 294/203/3 244/204/3
f 292/205/32 129/206/32 245/207/32 16/208/32
f 84/209/33 105/210/33 17/211/33 243/212/33
f 13/213/34 2/214/34 63/215/34 64/216/34
f 247/217/1 279/218/1 277/219/1 248/220/1
f 226/221/35 7/222/35 52/223/35 246/224/35
f 6/225/36 230/226/36 249/227/36 51/228/36
f 54/229/37 53/230/37 65/231/37 66/232/37
f 250/233/4 113/234/4 202/235/4 238/236/4
f 240/237/38 109/238/38 112/239/38 251/240/38
f 61/241/39 4/242/39 60/243/39 68/244/39
f 3/245/40 62/246/40 67/247/40 59/248/40
f 252/249/41 255/250/41 261/251/41 258/252/41
f 272/253/42 47/254/42 221/255/42 256/256/42
f 132/257/43 50/258/43 70/259/43 253/260/43
f 15/261/44 14/262/44 254/263/44 218/264/44
f 260/265/12 262/266/12 264/267/12 259/268/12
f 219/269/45 69/270/45 72/271/45 265/272/45
f 222/273/46 48/274/46 74/275/46 263/276/46
f 257/277/47 49/278/47 73/279/47 71/280/47
f 266/281/7 281/282/7 295/283/7 268/284/7
f 236/285/48 285/286/48 269/287/48 296/288/48
f 11/289/49 10/290/49 57/291/49 76/292/49
f 55/293/50 58/294/50 75/295/50 56/296/50
